<?xml version='1.0' encoding='utf-8'?>
<svg xmlns="http://www.w3.org/2000/svg" enable-background="new 0 0 841.89 595.275" version="1.1" viewBox="0 0 841.89 595.28"> <rect width="841.89" height="595.28" clip-rule="evenodd" fill="#757575" fill-rule="evenodd"/> <path d="m0 436.81v78.922l420.94-218.09-420.94 139.17zm420.94-139.17-343.48 297.64h93.771l249.71-297.64zm1e-3 -1e-3zm-420.94-133.62 420.94 133.62-420.94-30.103v66.958l420.94-36.855-420.94-211.76v78.14zm326.47 431.26 94.479-297.64-149.73 297.64h55.25zm515.42-85.878v-78.14l-420.94-133.62 420.94 211.76zm-163.04 85.878h96.848l-354.76-297.64 257.91 297.64zm-231.85 0-26.059-297.64 98.405 297.64h55.804l-154.21-297.64-21.285 297.64h47.344zm-26.059-297.64zm149.73-297.64h-55.249l-94.478 297.64 149.73-297.64zm271.22 79.542-420.94 218.1 420.94 30.102v-66.958l-420.94 36.855 420.94-139.17v-78.922zm-77.459-79.542h-93.771l-249.71 297.64v-1e-3l-1e-3 2e-3 343.49-297.64zm-343.49 297.64v1e-3l-257.91-297.64h-96.848l354.76 297.64-2e-3 -2e-3zm-154.21-297.64 154.21 297.64-98.404-297.64h-55.804zm154.21 297.64zm-26.058-297.64 26.059 297.64 21.284-297.64h-47.343z" fill="#fff" opacity=".76"/> <path d="m293.98 362.64s-19.145 14.354-22.412-3.29-3.05-40.95-37.03-52.713-50.535-28.1-57.069-58.159c-6.535-30.06-1.089-33.327 14.376-45.743s25.268-26.792 29.624-38.99 6.317-20.911 15.465-23.307 11.109-5.446 15.901-18.951 19.931-20.148 28.099-11.98c0 0 2.615-5.881 14.16-8.713s9.366-7.842 31.366-13.069 30.931-10.673 52.496-17.425 40.297-15.9 53.37-15.9c4.573 0 13.416 1.229 17.679-1.008 4.364-2.29 3.234-5.367 7.1-8.642 0.26 0.24 0.424 1.28 0.774 1.39 0.447-0.011 0.53-0.845 1.012-0.931 0.544 0.249 0.506 0.824 0.85 1.207 0.07-0.071 0.997-1.191 0.976-1.189 0.258-0.111 0.282 0.694 0.386 0.714 0.557-0.491 0.946-1.071 1.502-1.529 0.196 0.014 0.695 0.54 0.458 0.617 1.481-0.332 2.908-1.102 4.332-1.306 1.496 0.303 0.782 0.667 2.951-0.438 0.58 0.445 0.514 1.155 0.95 1.553 2.248-0.979 4.111-0.779 6.3-1.307 0.114 1e-3 -0.052 0.754 0.04 0.785 1.784-0.386 3.113-0.036 4.763 0.279 0.338 0.779 0.597 1.428 0.921 2.165 0.518 0.182 1.335-0.244 1.816 0.049 0.252 0.151 0.317 1.154 0.593 1.453 0.937 0.084 1.921 0.098 2.818 0.175 0.316 1.002 1.091 1.846 1.517 3.31 0.861 0.267 1.842-0.183 2.741-0.025-0.045 0.522 0.089 2.6 0.325 3.349 2.508 1.186 5.384 1.818 8.243 1.726 0 0 13.287-0.872 17.426-0.872s5.446 8.495 20.476 11.544 18.951 8.931 32.456 8.931 17.099-4.03 26.792 5.663 28.97 33.98 16.554 77.545-34.853 48.574-22.437 78.633 22 44-14.812 22.653c0 0-2.396 2.396 3.267 18.732s5.663 14.158 3.703 47.049 12.634 37.247 21.347 79.505 13.068 18.951 11.979 43.348c0 0 15.684 18.732 29.406 52.495s27.881 53.391 13.723 91.28h-445.67s23.656-20.185 77.515-144.19c-1e-3 -1e-3 -13.253-23.056 0.879-86.469z" fill="#FFF6CC"/> <path d="m370.56 336.33s28.715 20.161 48.876 0 40.322-43.378 64.149-39.101 48.876 26.881 48.876-12.83c0 0 0.327 21.041 2.971 25.338s5.618 7.932 2.644 9.089 4.793 0.826 1.322 7.105 2.147 19.5-2.645 28.423-5.288 12.395-3.966 16.36 4.957 16.524-4.627 32.058-46.269 32.223-74.525 21.646-15.45-27.184-31.562-28.588-20.161-10.907-24.622-17.021-7.932-4.131-7.932-8.262-3.719 1.735-4.792-4.131-20.294-28.559-16.757-27.499-0.851-4.686 2.59-2.587z"/> <path d="m458.82 276.44s-0.519 4.409-8.299 4.409-23.858 0.778-23.858-3.631-4.15-4.928-10.633-4.928c-6.484 0-20.747-8.558-20.747-24.896s7.262-32.417 28.009-37.344c20.746-4.927 19.19-9.077 33.973-9.077s35.01 8.039 35.01 27.489c0 19.451-7.521 15.3-8.688 28.138s-5.576 19.84-24.767 19.84z" fill="#333"/> <path d="m478.03 251.27s-14.819 1.411-17.288-7.057c-2.471-8.468 10.937-21.522 18.699-19.758s7.586 13.231 3.528 17.289-7.668 6.075-4.567 7.108 4.309 1.85-0.372 2.418z"/> <path d="m426.4 265.69s13.59-6.079 11.562-14.663c-2.024-8.585-20.125-13.333-26.01-7.972-5.884 5.362-0.076 15.251 5.454 16.781s9.666 1.505 7.478 3.933c-2.187 2.428-2.835 3.735 1.516 1.921z"/> <path d="m359.4 188.11s-14.437-9.023-26.844-6.542-13.76 22.557-18.497 27.294-6.204 9.812-2.933 6.542 13.535-4.286 24.588-6.316 32.04-16.938 23.686-20.978z" fill="#424242"/> <path d="m459.25 157.24c-0.617-0.236-4.574-0.507-1.883-7.352s7.266-18.127 23.145-14.958 11.169 9 22.203 12.422 2.152 1.648-0.808 2.536c-2.96 0.887-14.804 18-42.657 7.352z" fill="#424242"/> <path d="m354.58 187.79c-3.902-2.061-13.108-6.217-21.298-4.579-8.241 1.648-11.89 13.316-14.509 20.011 1.533 2.639 3.808 4.875 6.581 6.488 2.965-0.524 7.29-2.082 10.66-2.701 6.094-1.119 15.671-6.764 19.946-11.616 0.027-0.369 0.045-0.74 0.045-1.115-2e-3 -2.296-0.51-4.486-1.425-6.488z" fill="#898989"/> <radialGradient id="b" cx="337.34" cy="195.79" r="15.013" gradientUnits="userSpaceOnUse"> <stop stop-color="#F29744" offset="0"/> <stop stop-color="#5F3C16" offset="1"/> </radialGradient> <path d="m354.17 189.95c0-0.826-0.053-1.636-0.135-2.437-4.161-2.131-12.914-5.864-20.75-4.296-6.574 1.315-10.225 9.005-12.763 15.462 1.8 4.465 4.927 8.052 8.8 10.064 2.237-0.628 4.642-1.352 6.694-1.729 4.773-0.876 11.671-4.53 16.497-8.403 1.053-2.634 1.657-5.562 1.657-8.661z" fill="url(#b)"/> <ellipse cx="338.67" cy="192.78" rx="7.167" ry="6.083"/> <ellipse cx="332.58" cy="192.78" rx="2.917" ry="3.25" fill="#fff" opacity=".3"/> <ellipse cx="331.29" cy="188.11" rx="1.292" ry="1.417" fill="#fff" opacity=".3"/> <path d="m458.88 150.67c0.698 2.179 1.747 4.188 3.078 5.957 15.92 5.741 25.874 1.308 31.576-2.662 1.335-2.519 2.159-5.372 2.333-8.409-4.867-3.042-4.096-7.001-15.829-9.343-14.269-2.848-18.379 7.29-20.797 13.44-0.142 0.36-0.26 0.696-0.361 1.017z" fill="#898989"/> <radialGradient id="a" cx="477.05" cy="146.45" r="15.018" gradientTransform="matrix(1 0 0 .942 0 9.5894)" gradientUnits="userSpaceOnUse"> <stop stop-color="#F29744" offset="0"/> <stop stop-color="#5F3C16" offset="1"/> </radialGradient> <path d="m494.18 145.43c0-0.403-0.033-0.797-0.062-1.193-3.14-2.796-3.978-6.009-14.076-8.024-13.031-2.601-17.59 5.629-20.124 11.761 0.581 3.771 2.419 7.13 5.096 9.651 11.762 3.458 19.994 1.204 25.498-1.787 2.29-2.872 3.668-6.479 3.668-10.408z" fill="url(#a)"/> <path d="m467.08 147.91c0.923 3.355 5.074 5.245 9.271 4.222 4.195-1.024 6.85-4.574 5.928-7.931-0.923-3.355-5.074-5.245-9.27-4.222-4.195 1.024-6.851 4.575-5.929 7.931z"/> <path d="m478.03 145.24c0.493 1.793 2.277 2.909 3.985 2.492 1.709-0.416 2.693-2.207 2.2-4-0.493-1.792-2.276-2.908-3.986-2.492-1.707 0.416-2.69 2.207-2.199 4z" fill="#fff" opacity=".3"/> <path d="m479.84 139.82c0.215 0.782 1.002 1.266 1.759 1.081s1.195-0.967 0.98-1.749c-0.216-0.781-1.001-1.266-1.758-1.081-0.759 0.186-1.196 0.969-0.981 1.749z" fill="#fff" opacity=".3"/> <path d="m488.33 78.03c-12-7.5 14.5 34.5 26 46s23 50.5 39 91.5 24.497 45.362 24.497 45.362l1.834 1.056c34.648 19.811 25.183 5.839 12.978-23.709-12.416-30.059 10.021-35.069 22.437-78.633s-6.86-67.852-16.554-77.545c-0.303-0.303-0.6-0.592-0.892-0.869-5.007 7.583-0.367 23.771-5.8 18.338-7.75-7.75-21-15-39.5-21.5s-10.5 10.5-1 20-2.5 16-11-2-40-26-51.5-30.5 11.5 20-0.5 12.5z" fill="#DDBA87"/> <path d="m234.54 306.64c33.98 11.763 33.763 35.069 37.03 52.713s22.412 3.29 22.412 3.29 18.035-8.736 9.018-55.744-22.445-84.275-22.445-102.48-3.812-77.076-10.587-59.713 2.117 91.898-1.271 82.582-10.587-85.123-21.598-63.524-11.858 30.492-11.858 14.399 2.605-26.166-17.398-6.162c-9e-3 9e-3 -0.019 0.019-0.028 0.027-5.273 10.121-13.883 21.016-25.967 30.717-15.465 12.416-20.911 15.683-14.376 45.743 6.534 30.057 23.088 46.394 57.068 58.157z" fill="#DDBA87"/> <path d="m299.23 343.78c-19.56 5.498-21.108-16.347-20.292-29.296-8.699 0.25-14.241-5.871-21.352-9.954-10.914-6.267-19.736-5.777-31.129-9.252-28.288-8.629-13.103-37.675-23.955-57.797-4.014-7.443-13.281-19.117-22.719-16.814-1.621 0.395-3.085 1-4.411 1.779-1.242 5.804-0.589 13.638 2.105 26.032 6.535 30.059 23.089 46.396 57.069 58.159s33.763 35.069 37.03 52.713 22.412 3.29 22.412 3.29 8.466-4.108 10.896-21.816c-1.478 1.298-3.338 2.305-5.654 2.956z" fill="#333" opacity=".15"/> <path d="m268.7 227.28c-1.136-3.123-2.7-13.719-4.692-25.611 0.998 12.877 3.588 25.7 8.159 38.465 3.963 11.066 19.542 36.084 29.263 58.871-8.924-43.274-20.872-77.415-20.872-94.594 0-18.21-3.812-77.076-10.587-59.713s2.117 91.899-1.271 82.582z" fill="#AF8751"/> <path d="m598.52 82.061c-0.303-0.303-0.6-0.592-0.892-0.869-5.007 7.583-0.367 23.771-5.8 18.338-1.157-1.157-2.453-2.302-3.854-3.437 2.761 10.428 10.801 20.756 14.491 31.729 7.32 21.763-0.633 38.626-10.872 57.028-12.687 22.798-10.777 44.403-4.588 68.991-8.747-1.008-19.238-9.262-24.494-16.815 10.046 21.15 15.314 23.867 15.314 23.867l1.834 1.056c34.648 19.811 25.183 5.839 12.978-23.709-12.416-30.059 10.021-35.069 22.437-78.633s-6.86-67.853-16.554-77.546z" fill="#333" opacity=".15"/> <path d="m535.97 131.03c-12.594-24.329-30.793-45.8-49.306-66.041-5.736-0.1 12.675 19.918 1.67 13.04-12-7.5 14.5 34.5 26 46 11.293 11.293 22.59 49.108 38.145 89.292-0.079-1.637-0.14-3.131-0.209-4.39-1.587-28.867-2.899-52.013-16.3-77.901z" fill="#AF8751"/> <path d="m304.41 237.59c-3.746-2.79-5.375-7.196-3.957-13.58 25.057-2.228 38.369 37.512 57.108 3.609 6.973-12.617 11.204-30.326 15.639-44.071 6.499-20.14 10.768-30.172-8.532-26.171-5.593 1.159-10.821 5.625-17.247 6.789-10.356 1.875-21.57 0.21-32.357 2.554 1.668-8.3 7.155-29.154 16.289-31.044 3.67-0.76 9.473 10.416 18.167 8.527-0.282-4.432 2.5-9.741 2.502-13.811 30.563 14.521 34.36 22.324 27.877 56-3.917 20.347-35.993 116.28-57.904 78.021-6.661-11.629-0.802-24.962-18.092-26.825" fill="#DBC5A1" opacity=".27"/> <path d="m531.21 273.38c1.294-34.32-24.288-58.762-49.462-78.316-24.352-18.916-69.479-39.146-73.648-74.323-4.202-35.442 29.32 3.66 26.83-20.069 15.429-4.303 46.399 9.692 54.616 23.338-14.002-5.755-52.009-9.526-57.791 10.679-3.964 13.852 16.968 31.617 26.438 38.697 19.952 14.917 43.556 29.985 59.283 49.733 11.707 14.701 19.324 32.562 12.391 51.155" fill="#DBC5A1" opacity=".27"/> <path d="m353.76 346.68c-15.142-3.949-31.604-19.02-41.631-31.466-14.841-18.422-9.135-36.773-12.663-57.896-1.542-9.235-6.516-14.866-9.635-23.069-3.704-9.738-2.918-21.822-2.624-32.054 0.761-26.472-5.438-55.051-5.456-81.558-4.577-2.174-10.301 8.066-10.103 21.212 5.723-4.691 8.908 45.915 8.908 62.562 0 18.21 13.428 55.478 22.445 102.48 0.969 5.054 1.61 9.64 2.01 13.845 11.233 12.685 21.282 25.28 38.386 30.667 8.598 2.708 17.707 3.208 25.846 7.044 9.4 4.431 15.753 12.402 26.416 14.239-5.35-19.495-24.737-21.535-41.899-26.011z" opacity=".1"/> <path d="m557.39 225.52c-1.293-3.066-2.642-6.38-4.052-9.994-16-41-27.5-80-39-91.5-9.014-9.014-27.24-36.762-28.922-44.729-8.571-5.054-17.357-8.221-26.001-8.696 7.386 8.595 19.277 10.117 26.763 18.702 7.389 8.476 12.693 20.413 20.084 29.478 19.708 24.171 26.571 58.562 37.285 87.545 5.099 13.793 8.873 29.495 7.913 44.354-1.217 18.854-13.247 34.024-11.622 53.345l0.5-2.5c0.091-10.193 4.428-31.104 16.448-29.543-4.602-9.46 0.512-15.377 0.456-24.645-0.039-6.702 0.083-14.136 0.148-21.817z" opacity=".1"/> <path d="m538.79 345.05c-0.058 3.291-0.538 6.506-2.038 9.3-4.792 8.923-5.288 12.395-3.966 16.36s4.957 16.524-4.627 32.058-46.269 32.223-74.525 21.646-15.45-27.184-31.562-28.588c-4.934-0.43-8.732-1.621-11.762-3.24 5.909 5.147 12.514 9.459 17.264 15.77 8.783 11.667 9.974 22.726 26.17 26.211 30.582 6.581 59.926 2.054 78.671-23.195 7.741-10.43 7.948-26.732 5.494-39.852-1.972-10.542 6.648-15.072 0.881-26.47z" fill="#DBC5A1"/> <path d="m344.08 388.08c-7.258-6.868-16.157-11.9-25.68-15.042 1.866 6.391 1.042 13.646 2.444 20.026-3.766-1.223-9.138-1.798-12.416-3.633 0.144 0.241-0.486 3.764 0.107 3.696 59.302 17.813 73.367 49.606 104.26 98.903 8.572 13.677 18.522 26.465 27.13 40.06 3.321-23.785-21.138-46.507-27.56-69.066-9.453-33.203-20.826-48.252-51.134-65.628-6.731-3.859-13.635-6.565-19.665-11.197" fill="#DBC5A1" opacity=".27"/> <path d="m558.55 280.84c12.919 21.308 2.948 45.168 1.269 67.878-1.445 19.538 4.168 38.114 14.298 54.948 0.117-0.276 0.019-0.462-0.297-0.556-4.346-12.646-7.395-27.215-5.973-40.479 9.824 0.622 12.315 10.829 14.812 20.41 6.714-18.794-9.188-87.214-23.482-101.58" fill="#DBC5A1" opacity=".27"/> <path d="m308.5 476.2c13.295 32.124 48.48 52.908 79.833 65.336 21.578 8.555 44.967 7.811 65.891 11.172 26.074 4.188 44.393 17.407 70.661 11.126 23.967-5.73 28.24-3.825 53.56 2.803-2.188-38.365 30.061-58.899 33.389-94.23 6e-3 0.346 1e-3 0.691-0.016 1.036-1.75 26.717-9.394 61.248-19.598 85.806-12.538 30.173-35.229 14.962-64.815 13.074-35.087-2.237-62.969-7.738-96.872-15.937-32.976-7.973-67.823-3.338-94.637-27.977-15.343-14.098-22.377-32.349-28.729-51.543" fill="#DBC5A1" opacity=".27"/> <path d="m378.39 355c-8.271-10.453-25.429-15.899-27.197-30.334 14.761-5.528 42.703 24.143 46.903 34.724-3.633 1.347-7.331 1.651-11.221 1.672" opacity=".1"/> <path d="m497.18 302.27c32.588 10.349 33.464-26.963 36.881-23.546 1.558 13.076 9.958 56.015-15.062 41.123" opacity=".1"/> <path d="m415.76 299.75c2.603 0.202 5.422 2.007 8.255 2.05 0.665 0.484-0.226 2.037-0.016 2.731 2.034 0.09 4.007 0.684 5.93 1.058-0.535 1.323-1.279 2.834-1.907 4.095 0.259 0.665 2.541-7e-3 3.094 0.964-0.26 0.401-2.351 2.168-2.321 2.751 2.274 0.547 4.349 1.797 6.784 2.042 0.523 1.083 1.212 2.015 2.013 2.838 14.373-13.516 29.284-24.052 46.001-21.051 4.534 0.814 9.111 2.292 13.552 3.877-0.317-0.624-0.64-1.244-0.979-1.812 5.196-1.62 5.55-4.835 1.613-8.428 0.252-1.157 1.417-2.252 1.773-3.689 0.17-0.956-2.351-0.855-2.738-1.274 3.423-4.142 5.138-1.659 0.238-6.137 1.716-0.387 3.55-1.457 5.292-1.602-1.28-1.363-2.269-2.851-3.805-4.034 0.764-0.969 2.755-1.417 3.76-2.175-0.104-0.815-2.206-2.134-2.104-2.68 1.025-1.467 2.643-2.387 3.763-3.909-0.606-0.778-2.382-1.773-2.688-2.506 0.276-0.491 1.981-1.74 1.974-2.111-0.982-0.495-2.137-0.246-3.03-0.638 0.121-0.747 0.934-1.167 1.097-1.923-1.344-3.028-1.997-1.597-2.294-4.852-9.728-0.585-5.966-7.975-5.381-14.398-0.65-0.709-1.326-1.371-2.019-2-1.856 10.028-7.073 9.153-8.029 19.669-1.167 12.837-5.576 19.839-24.767 19.839 0 0-0.519 4.409-8.299 4.409s-23.858 0.778-23.858-3.631-4.15-4.928-10.633-4.928c-1.39 0-3.137-0.396-5.023-1.174l-0.394 0.774c0.598 2.73-0.202 4.123 3.124 5.164-6e-3 0.023-0.871 2.864-0.916 2.688 0.243 0.639 1.098 0.74 1.479 1.304-0.529 4.001-2.019 1.422-0.023 6.187-1.488 0.68-2.892 1.46-4.107 2.521 0.33 0.353 0.689 0.67 1.079 0.953-0.499 0.581-1.593 0.872-2.274 1.178 1.223 2.061 0.73 2.032 1.273 3.538 2.032 0.851 3.965 2.065 5.945 2.774 0.55 0.557-0.786 1.076-0.434 1.548z" fill="#333" opacity=".65"/> <g fill="#333" opacity=".22"> <circle cx="372.55" cy="292.75" r="1.493"/> <circle cx="379.89" cy="291.88" r="1.369"/> <circle cx="386.24" cy="289.76" r="1.245"/> <circle cx="394.7" cy="290.76" r="1.742"/> <circle cx="403.16" cy="289.76" r=".747"/> <circle cx="382.38" cy="309.3" r="1.37"/> <circle cx="389.47" cy="308.43" r=".996"/> <circle cx="398.19" cy="307.19" r="1.245"/> <circle cx="407.15" cy="305.2" r="1.494"/> <circle cx="415.86" cy="302.96" r="1.245"/> <circle cx="404.66" cy="322.62" r="1.494"/> <circle cx="408.89" cy="317.39" r="1.244"/> <circle cx="416.23" cy="315.52" r="1.618"/> <circle cx="423.14" cy="310.24" r=".249"/> </g> <path d="m504.56 270.31c-0.509-0.72-1.231-1.084-1.611-0.814-0.38 0.269-0.276 1.07 0.232 1.79 0.509 0.718 1.229 1.083 1.61 0.813 0.38-0.268 0.276-1.071-0.231-1.789zm-4.929-17.681c-0.443 0.314-0.322 1.249 0.271 2.088 0.594 0.84 1.436 1.265 1.879 0.951s0.322-1.249-0.271-2.089c-0.594-0.839-1.436-1.264-1.879-0.95zm-0.184 27.565c-0.063 0.046-0.047 0.18 0.037 0.299 0.086 0.12 0.206 0.18 0.27 0.135 0.062-0.045 0.046-0.178-0.039-0.298-0.084-0.118-0.204-0.18-0.268-0.136zm5.317-28.591c0.317-0.225 0.23-0.893-0.193-1.491-0.424-0.6-1.024-0.904-1.342-0.679s-0.23 0.892 0.193 1.491c0.424 0.598 1.024 0.903 1.342 0.679zm4.31-0.119c0.349-0.247 0.253-0.981-0.214-1.641-0.466-0.659-1.126-0.994-1.476-0.747s-0.253 0.981 0.213 1.64c0.468 0.66 1.128 0.995 1.477 0.748zm-4.022 29.874c-0.412 0.291-0.299 1.159 0.252 1.938s1.332 1.175 1.744 0.884c0.412-0.292 0.299-1.16-0.252-1.939s-1.332-1.175-1.744-0.883zm9.793 2.516c-0.381 0.27-0.276 1.072 0.231 1.79 0.509 0.719 1.23 1.084 1.611 0.814 0.38-0.269 0.275-1.07-0.232-1.79-0.509-0.717-1.23-1.083-1.61-0.814zm3.616-18.026c-0.467-0.659-1.128-0.993-1.477-0.746-0.349 0.246-0.254 0.98 0.213 1.64s1.128 0.995 1.477 0.749c0.35-0.248 0.254-0.983-0.213-1.643zm-3.982 1.677c-0.34-0.479-0.82-0.723-1.074-0.542-0.254 0.179-0.185 0.714 0.154 1.192 0.34 0.48 0.82 0.723 1.074 0.544 0.254-0.181 0.184-0.714-0.154-1.194zm-4.48 3.168c0.317-0.225 0.231-0.892-0.192-1.491-0.424-0.599-1.025-0.903-1.343-0.679s-0.23 0.893 0.193 1.491c0.424 0.6 1.025 0.904 1.342 0.679zm2.844-22.527c-0.509-0.718-1.229-1.084-1.61-0.814-0.38 0.269-0.275 1.071 0.232 1.789 0.51 0.72 1.23 1.084 1.61 0.815 0.382-0.27 0.277-1.07-0.232-1.79zm-3.021 32.749c-0.317 0.225-0.23 0.893 0.193 1.492 0.424 0.598 1.024 0.902 1.342 0.679 0.317-0.225 0.229-0.893-0.193-1.491-0.425-0.6-1.025-0.904-1.342-0.68z" fill="#333" opacity=".22"/> <path d="m539.4 325.93c1.596-2.887 0.815-4.374-0.203-5.254-3.707 3.687-3.039 9.373-6.539 12.931-8.023 8.156-19.729 11.232-27.589 22.353-5.194 7.35-21.649 36.087-7.307 42.996 6.949 3.348 26.667-11.321 31.696-15.103 1.666-1.253 3.367-2.66 5.059-4.184-0.237-4.192-1.18-7.313-1.728-8.956-1.322-3.966-0.826-7.438 3.966-16.36s-0.825-22.144 2.645-28.423z" fill="#D8B8C5" opacity=".29"/> <path d="m488.48 409.19c8.389-8.017-10.297-29.152-15.256-34.605-12.678-13.942-27.099-21.384-45.663-15.44l-9.101 7.279c-0.776 2.731-2.824 4.988-2.171 8.751-2.475-0.659-11.195-2.622-12.94 0.476-2.664 4.729 4.089 5.085 5.281 8.176 1.871 4.853 1.533 2.384 1.969 7.587 0.039 0.462 0.046 0.907 0.031 1.339 2.977 1.533 6.68 2.659 11.441 3.074 10.493 0.914 8.723 8.278 14.017 16.225 6.28-0.301 12.39-0.812 16.704-0.25 6.592 0.858 30.617 2.236 35.688-2.612z" fill="#D8B8C5" opacity=".29"/> <path d="m522.67 346.6c3.879 0-0.775-13.577-8.534-21.336-4.01-4.01-8.742-12.79-12.382-22.478-5.839-2.15-12.041-4.459-18.164-5.559-23.827-4.277-43.988 18.939-64.149 39.101-2.63 2.63-5.405 4.567-8.243 5.96 3.131 12.834 10.73 41.94 15.267 41.94 5.819 0 7.759-16.293 11.638-6.982s13.578 29.095 43.061 29.095 41.896-33.75 39.568-46.552-1.941-13.189 1.938-13.189z" fill="#D8B8C5"/> <path d="m411.26 342.25c-3.449 1.701-6.991 2.591-10.479 2.9 1e-3 5e-3 3.729 17.39 16.913 21.001-2.627-8.436-5.046-17.906-6.5-23.867 0.022-0.011 0.044-0.023 0.066-0.034zm90.293-39.54c-1.379-0.508-2.777-1.023-4.19-1.529 1.413 0.505 2.81 1.021 4.19 1.529zm0 0c0.065 0.024 0.132 0.049 0.197 0.073v-1e-3c-0.064-0.023-0.133-0.048-0.197-0.072zm0.197 0.073c3.64 9.687 8.372 18.467 12.382 22.477 0 0 2.662-5.538-0.215-18.521-3.736-0.865-7.852-2.367-12.167-3.956zm-63.652 74.459c-1.525-3.66-2.75-3.356-4.029-1.649 2e-3 5e-3 4.408 15.638 16.408 20.094 4e-3 1e-3 8e-3 2e-3 0.011 3e-3 -6.893-6.193-10.407-13.687-12.39-18.448zm85.5-31.069c-0.225 0.27-0.529 0.423-0.932 0.423-3.879 0-4.268 0.388-1.939 13.189 0.371 2.042 0.363 4.619-0.024 7.504l2e-3 -1e-3c-1e-3 0 5.98-8.922 2.893-21.115z" fill="#fff"/> <path d="m532.79 370.71c-3.356 9.538-14.487 23.176-43.786 34.783-29.297 11.606-59.168-6.092-59.173-6.095 2.231 2.843 2.899 7.043 5.55 11.521 43.851 20.18 76.282-5.47 91.472-17.404 3.623-2.847 6.053-6.112 7.625-9.332 0.471-6.477-0.958-11.285-1.688-13.473z" fill="#333"/> <path d="m501.75 302.78c-5.839-2.15-12.041-4.459-18.164-5.559-23.827-4.277-43.988 18.939-64.149 39.101-2.63 2.63-5.405 4.567-8.243 5.96 0.086 0.351 0.176 0.719 0.268 1.093 2.877 1.376 6.107 2.418 10.182 2.78 4.16-5.794 13.643-5.79 22.195-3.371 0.459-4.906 4.151-9.981 8.402-13.803 4.871 2.369 12.744 2.145 17.625 4.018 1.888-4.771 4.406-9.342 5.492-14.159 4.682 1.098 7.59-0.264 12.587 2.352 3.777-1.44 7.345-2.83 12.599-4.519 0.085-2.527 1.412-5.642 3.166-9.018-0.679-1.586-1.337-3.216-1.96-4.875z" fill="#333" opacity=".13"/> <path d="m455.95 303.68c-1.756 1.072-3.496 2.25-5.225 3.507 0 0 28.024 49.032 29.688 68.764 0.051 0.604 0.077 1.18 0.077 1.727 0 17.878 14.642 3.743-24.54-73.998z" fill="#333" opacity=".13"/> <path d="m296.25 466.96c-0.057 30.716-8.162 81.074 7.633 109.59-0.031-33.724 6.151-75.857-8.034-107.19" fill="#DBC5A1" opacity=".27"/> </svg>